<svg width="36" height="36" viewBox="0 0 36 36" fill="none" xmlns="http://www.w3.org/2000/svg">
<path d="M17.9957 18.6666C18.3638 18.6666 18.6623 18.3682 18.6623 18C18.6623 17.6318 18.3638 17.3334 17.9957 17.3334C17.6275 17.3334 17.329 17.6318 17.329 18C17.329 18.3682 17.6275 18.6666 17.9957 18.6666Z" stroke="#0A0A0A" stroke-width="1.33319" stroke-linecap="round" stroke-linejoin="round"/>
<path d="M17.9957 14.0002C18.3638 14.0002 18.6623 13.7018 18.6623 13.3336C18.6623 12.9654 18.3638 12.667 17.9957 12.667C17.6275 12.667 17.329 12.9654 17.329 13.3336C17.329 13.7018 17.6275 14.0002 17.9957 14.0002Z" stroke="#0A0A0A" stroke-width="1.33319" stroke-linecap="round" stroke-linejoin="round"/>
<path d="M17.9957 23.333C18.3638 23.333 18.6623 23.0345 18.6623 22.6664C18.6623 22.2982 18.3638 21.9998 17.9957 21.9998C17.6275 21.9998 17.329 22.2982 17.329 22.6664C17.329 23.0345 17.6275 23.333 17.9957 23.333Z" stroke="#0A0A0A" stroke-width="1.33319" stroke-linecap="round" stroke-linejoin="round"/>
</svg>
