<svg width="32" height="32" viewBox="0 0 32 32" fill="none" xmlns="http://www.w3.org/2000/svg">
<path d="M23.4613 17.024C23.9615 17.5242 24.6399 17.8052 25.3473 17.8052C26.0547 17.8052 26.7331 17.5242 27.2333 17.024C27.7335 16.5238 28.0145 15.8454 28.0145 15.138C28.0145 14.4306 27.7335 13.7522 27.2333 13.252L24.876 10.896C25.3761 11.396 26.0545 11.6769 26.7618 11.6767C27.112 11.6767 27.4587 11.6076 27.7822 11.4736C28.1058 11.3395 28.3997 11.143 28.6473 10.8953C28.8949 10.6477 29.0912 10.3536 29.2252 10.0301C29.3592 9.70651 29.4281 9.35973 29.428 9.00953C29.428 8.65933 29.3589 8.31257 29.2248 7.98905C29.0908 7.66553 28.8943 7.37159 28.6466 7.124L24.876 3.35333C24.3759 2.85314 23.6977 2.57206 22.9904 2.57193C22.2832 2.57181 21.6048 2.85265 21.1046 3.35267C20.6044 3.85269 20.3233 4.53093 20.3232 5.2382C20.3231 5.94546 20.6039 6.6238 21.104 7.124L18.7479 4.76667C18.5003 4.51899 18.2062 4.32253 17.8826 4.18849C17.559 4.05445 17.2122 3.98546 16.8619 3.98546C16.5117 3.98546 16.1649 4.05445 15.8413 4.18849C15.5177 4.32253 15.2236 4.51899 14.976 4.76667C14.7283 5.01434 14.5318 5.30837 14.3978 5.63197C14.2637 5.95557 14.1947 6.30241 14.1947 6.65267C14.1947 7.00293 14.2637 7.34976 14.3978 7.67336C14.5318 7.99696 14.7283 8.29099 14.976 8.53867L23.4613 17.024Z" stroke="#0A0A0A" stroke-width="2.66638" stroke-linecap="round" stroke-linejoin="round"/>
<path d="M3.33336 28.6667L5.20003 26.8" stroke="#0A0A0A" stroke-width="2.66638" stroke-linecap="round" stroke-linejoin="round"/>
<path d="M26.8 5.2L28.6666 3.33333" stroke="#0A0A0A" stroke-width="2.66638" stroke-linecap="round" stroke-linejoin="round"/>
<path d="M7.124 28.6467C7.62402 29.1469 8.30226 29.4279 9.00953 29.4281C9.35973 29.4281 9.70651 29.3592 10.0301 29.2253C10.3536 29.0913 10.6477 28.8949 10.8953 28.6473C11.143 28.3998 11.3395 28.1058 11.4736 27.7823C11.6076 27.4588 11.6767 27.112 11.6767 26.7618C11.6768 26.4116 11.6079 26.0648 11.4739 25.7413C11.34 25.4177 11.1436 25.1237 10.896 24.876L13.252 27.2333C13.7522 27.7335 14.4306 28.0145 15.138 28.0145C15.8454 28.0145 16.5238 27.7335 17.024 27.2333C17.5242 26.7331 17.8052 26.0547 17.8052 25.3473C17.8052 24.64 17.5242 23.9615 17.024 23.4613L8.53866 14.976C8.29099 14.7283 7.99696 14.5319 7.67336 14.3978C7.34976 14.2638 7.00293 14.1948 6.65266 14.1948C6.3024 14.1948 5.95557 14.2638 5.63197 14.3978C5.30837 14.5319 5.01434 14.7283 4.76666 14.976C4.51899 15.2237 4.32253 15.5177 4.18849 15.8413C4.05445 16.1649 3.98546 16.5117 3.98546 16.862C3.98546 17.2123 4.05445 17.5591 4.18849 17.8827C4.32253 18.2063 4.51899 18.5003 4.76666 18.748L7.124 21.104C6.6238 20.604 5.94545 20.3231 5.23819 20.3233C4.53093 20.3234 3.85269 20.6045 3.35266 21.1047C2.85264 21.6049 2.5718 22.2832 2.57193 22.9905C2.57205 23.6977 2.85313 24.376 3.35333 24.876L7.124 28.6467Z" stroke="#0A0A0A" stroke-width="2.66638" stroke-linecap="round" stroke-linejoin="round"/>
<path d="M12.7999 19.2L19.1999 12.8" stroke="#0A0A0A" stroke-width="2.66638" stroke-linecap="round" stroke-linejoin="round"/>
</svg>
